<svg width="1115" height="197" viewBox="0 0 1115 197" fill="none" xmlns="http://www.w3.org/2000/svg">
<path d="M191.142 98.9891C195.112 146.631 168.722 180.926 129.934 192.719C110.195 198.72 85.5923 193.088 79.6039 173.345C70.1991 142.338 90.0279 102.16 9.626 99.1669C4.15091 98.9631 -0.372201 94.5386 0.0242246 89.0741C3.42789 42.1563 31.9049 23.657 83.0097 24.5862C136.58 62.2837 79.0416 78.1563 191.142 98.9891Z" fill="#E3E6F8"/>
<path d="M162.206 175.281C173.304 166.073 182.232 154.525 188.36 141.452C194.488 128.379 197.667 114.1 197.673 99.6228C197.678 85.1453 194.51 70.8221 188.392 57.6642C182.274 44.5062 173.355 32.834 162.264 23.4715C151.173 14.1089 138.181 7.28409 124.205 3.4787C110.229 -0.326701 95.609 -1.01994 81.3771 1.44789C67.1452 3.91572 53.6483 9.48448 41.8387 17.7612C30.0292 26.0379 20.1949 36.8208 13.0299 49.3489L14.4013 49.6063C82.4426 62.3799 138.658 110.179 162.206 175.281Z" fill="#E3E6F8"/>
<path d="M47.2964 163.472C47.2964 171.69 40.6341 178.352 32.4158 178.352C24.1975 178.352 17.5352 171.69 17.5352 163.472C17.5352 155.253 32.4158 133.711 32.4158 133.711C32.4158 133.711 47.2964 155.253 47.2964 163.472Z" fill="#E3E6F8"/>
<path d="M219.168 195V23.6133H272.452C286.368 23.6133 296.805 27.4951 303.763 35.2588C310.794 42.9492 314.31 54.2285 314.31 69.0967V137.651C314.31 155.962 311.124 170.098 304.752 180.059C298.38 190.02 287.174 195 271.134 195H219.168ZM258.06 160.833H264.762C271.866 160.833 275.418 157.39 275.418 150.505V72.7222C275.418 66.2769 274.54 62.1387 272.782 60.3076C271.097 58.4033 267.618 57.4512 262.345 57.4512H258.06V160.833Z" fill="#E3E6F8"/>
<path d="M369.523 178.758C353.703 178.758 341.801 173.997 333.817 164.476C325.834 154.881 321.842 141.478 321.842 124.266V72.3926C321.842 55.7666 325.907 43.2056 334.037 34.7095C342.24 26.1401 354.069 21.8555 369.523 21.8555C385.05 21.8555 396.879 26.1401 405.009 34.7095C413.139 43.2056 417.204 55.7666 417.204 72.3926V124.266C417.204 141.478 413.212 154.881 405.229 164.476C397.245 173.997 385.343 178.758 369.523 178.758ZM369.853 144.261C373.515 144.261 375.895 142.613 376.994 139.317C378.092 135.948 378.642 131.919 378.642 127.232V70.6348C378.642 67.1924 378.166 63.9697 377.213 60.9668C376.261 57.8906 373.881 56.3525 370.072 56.3525C366.337 56.3525 363.773 57.7808 362.382 60.6372C361.063 63.4204 360.404 66.8628 360.404 70.9644V127.452C360.404 132.505 360.99 136.57 362.162 139.646C363.334 142.723 365.897 144.261 369.853 144.261Z" fill="#E3E6F8"/>
<path d="M471.098 178.758C457.109 178.758 445.83 174.4 437.26 165.684C428.764 156.968 424.516 144.773 424.516 129.1V79.8633C424.516 61.1133 428.215 46.7578 435.612 36.7969C443.083 26.8359 455.205 21.8555 471.977 21.8555C481.132 21.8555 489.262 23.54 496.367 26.9092C503.544 30.2783 509.184 35.332 513.286 42.0703C517.387 48.7354 519.438 57.1582 519.438 67.3389V98.1006H480.986V71.0742C480.986 65.2881 480.253 61.4062 478.789 59.4287C477.324 57.3779 475.053 56.3525 471.977 56.3525C468.388 56.3525 465.971 57.6709 464.726 60.3076C463.481 62.8711 462.858 66.3135 462.858 70.6348V129.649C462.858 134.996 463.627 138.768 465.166 140.965C466.777 143.162 469.047 144.261 471.977 144.261C475.273 144.261 477.58 142.906 478.898 140.196C480.29 137.486 480.986 133.97 480.986 129.649V122.71H519.877V130.308C519.877 147.3 515.593 159.642 507.023 167.332C498.454 174.949 486.479 178.758 471.098 178.758Z" fill="#E3E6F8"/>
<path d="M526.091 195V23.6133H603.435V60.9668H565.422V89.3115H601.897V125.676H565.422V157.317H605.962V195H526.091Z" fill="#E3E6F8"/>
<path d="M630.066 195V23.6133H668.738V162.041H708.508V195H630.066Z" fill="#E3E6F8"/>
<path d="M710.987 195V23.6133H748.34V195H710.987Z" fill="#E3E6F8"/>
<path d="M756.971 195V23.6133H815.858L832.118 125.786L848.268 23.6133H907.704V195H872.328V76.897L850.135 195H815.418L791.908 76.6772V195H756.971Z" fill="#E3E6F8"/>
<path d="M912.819 195L931.496 50.6133H997.084L1015.43 195H978.847L976.32 163.799H952.589L950.392 195H912.819ZM962.917 81.375L955.775 132.927H972.694L964.674 81.375H962.917Z" fill="#E3E6F8"/>
<path d="M1066.69 196.758C1050.87 196.758 1038.97 191.997 1030.98 182.476C1023 172.881 1019.01 159.478 1019.01 142.266V72.3926C1019.01 55.7666 1023.07 43.2056 1031.2 34.7095C1039.41 26.1401 1051.23 21.8555 1066.69 21.8555C1082.22 21.8555 1094.04 26.1401 1102.17 34.7095C1110.3 43.2056 1114.37 55.7666 1114.37 72.3926V142.266C1114.37 159.478 1110.38 172.881 1102.39 182.476C1094.41 191.997 1082.51 196.758 1066.69 196.758ZM1067.02 162.261C1070.68 162.261 1073.06 160.613 1074.16 157.317C1075.26 153.948 1075.81 149.919 1075.81 145.232V70.6348C1075.81 67.1924 1075.33 63.9697 1074.38 60.9668C1073.43 57.8906 1071.05 56.3525 1067.24 56.3525C1063.5 56.3525 1060.94 57.7808 1059.55 60.6372C1058.23 63.4204 1057.57 66.8628 1057.57 70.9644V145.452C1057.57 150.505 1058.16 154.57 1059.33 157.646C1060.5 160.723 1063.06 162.261 1067.02 162.261Z" fill="#E3E6F8"/>
<path d="M931.5 24H997.5V40.5H931.5V24Z" fill="#E3E6F8"/>
<path d="M322.5 184.5H520.5V196.5H322.5V184.5Z" fill="#E3E6F8"/>
<path d="M11 49C96.637 72.0324 136.975 102.203 165.5 178.5" stroke="#000FFC" stroke-width="5"/>
</svg>
