<svg width="320" height="329" viewBox="0 0 320 329" fill="none" xmlns="http://www.w3.org/2000/svg">
<path d="M223.41 167.998C214.227 158.815 214.227 143.927 223.41 134.744C231.55 126.604 244.386 125.554 253.74 132.263L268.261 142.677L282.782 132.263C292.137 125.554 304.973 126.604 313.113 134.744C322.296 143.927 322.296 158.815 313.113 167.998L268.261 212.849L223.41 167.998Z" fill="#000FFC"/>
<path d="M280.298 284.35C261.652 301.485 239.352 314.163 215.085 321.424C190.817 328.686 165.215 330.341 140.215 326.265C115.215 322.19 91.4691 312.489 70.7726 297.898C50.0762 283.306 32.9701 264.204 20.747 242.036C8.52388 219.867 1.50338 195.212 0.216014 169.933C-1.07135 144.655 3.40809 119.413 13.3158 96.1162C23.2236 72.8193 38.3005 52.0766 57.4074 35.455C76.5142 18.8335 98.5996 6.59777 123.056 2.43577e-05C123.056 2.43577e-05 135.657 104.294 167.155 161.421C198.653 218.547 280.298 284.35 280.298 284.35Z" fill="#000FFC"/>
<path d="M280.298 284.35C265.632 295.559 266.325 279.039 270.892 288.291C246.624 295.552 221.023 297.208 196.022 293.132C171.022 289.056 147.276 279.356 126.58 264.764C105.883 250.172 88.7773 231.071 76.5541 208.902C64.331 186.734 57.3105 162.079 56.0232 136.8C54.7358 111.521 59.2152 86.2797 69.123 62.9829C79.0307 39.686 85.691 28.8625 104.798 12.241C120.694 -0.0985231 123.056 2.43577e-05 123.056 2.43577e-05C123.056 2.43577e-05 134.3 98.5816 164.991 156.602C195.493 214.266 280.298 284.35 280.298 284.35Z" fill="#D4F371"/>
</svg>
