<svg width="158" height="156" viewBox="0 0 158 156" fill="none" xmlns="http://www.w3.org/2000/svg">
<path d="M79 156L100.889 136.14L130.423 137.284L134.426 108L157.785 89.8919L142.028 64.8865L148.282 36L120.138 26.9732L106.362 0.824585L79 12L51.6384 0.824585L37.8616 26.9732L9.71798 36L15.9723 64.8865L0.215393 89.8919L23.5744 108L27.577 137.284L57.1107 136.14L79 156Z" fill="#000FFC"/>
<path d="M67.94 93V44.42H74.45V93H67.94ZM58 50.3V44.42H73.75V50.3H58Z" fill="#E3E6F8"/>
<path d="M90.0376 65.07C88.0309 65.07 86.1876 64.6033 84.5076 63.67C82.8742 62.7367 81.5909 61.4767 80.6576 59.89C79.7242 58.2567 79.2576 56.46 79.2576 54.5C79.2576 52.4933 79.7242 50.72 80.6576 49.18C81.6376 47.5933 82.9209 46.3333 84.5076 45.4C86.1409 44.4667 87.9842 44 90.0376 44C92.0909 44 93.9109 44.4667 95.4976 45.4C97.1309 46.2867 98.4142 47.5233 99.3476 49.11C100.328 50.6967 100.818 52.4933 100.818 54.5C100.818 56.46 100.351 58.2567 99.4176 59.89C98.4842 61.4767 97.2009 62.7367 95.5676 63.67C93.9342 64.6033 92.0909 65.07 90.0376 65.07ZM90.0376 60.38C91.7176 60.38 93.0709 59.8433 94.0976 58.77C95.1709 57.65 95.7076 56.2267 95.7076 54.5C95.7076 52.7733 95.1709 51.3733 94.0976 50.3C93.0242 49.2267 91.6709 48.69 90.0376 48.69C88.3576 48.69 86.9809 49.25 85.9076 50.37C84.8809 51.4433 84.3676 52.82 84.3676 54.5C84.3676 56.2267 84.9042 57.65 85.9776 58.77C87.0509 59.8433 88.4042 60.38 90.0376 60.38Z" fill="#E3E6F8"/>
<path d="M43.6758 113V105.875H45.0258V113H43.6758ZM48.4908 113V108.695C48.4908 108.165 48.3258 107.75 47.9958 107.45C47.6758 107.14 47.2708 106.985 46.7808 106.985C46.4508 106.985 46.1558 107.055 45.8958 107.195C45.6358 107.335 45.4258 107.53 45.2658 107.78C45.1058 108.03 45.0258 108.33 45.0258 108.68L44.4708 108.41C44.4708 107.87 44.5858 107.4 44.8158 107C45.0558 106.6 45.3808 106.29 45.7908 106.07C46.2008 105.84 46.6608 105.725 47.1708 105.725C47.6708 105.725 48.1208 105.835 48.5208 106.055C48.9308 106.275 49.2508 106.585 49.4808 106.985C49.7208 107.385 49.8408 107.86 49.8408 108.41V113H48.4908ZM53.3058 113V108.695C53.3058 108.165 53.1408 107.75 52.8108 107.45C52.4908 107.14 52.0908 106.985 51.6108 106.985C51.2808 106.985 50.9808 107.055 50.7108 107.195C50.4508 107.335 50.2408 107.53 50.0808 107.78C49.9208 108.03 49.8408 108.33 49.8408 108.68L49.0758 108.41C49.1058 107.86 49.2508 107.39 49.5108 107C49.7808 106.6 50.1258 106.29 50.5458 106.07C50.9658 105.84 51.4258 105.725 51.9258 105.725C52.4458 105.725 52.9108 105.835 53.3208 106.055C53.7308 106.275 54.0558 106.585 54.2958 106.985C54.5458 107.385 54.6708 107.865 54.6708 108.425V113H53.3058Z" fill="#E3E6F8"/>
<path d="M59.3579 113.15C58.6479 113.15 58.0079 112.99 57.4379 112.67C56.8679 112.34 56.4179 111.895 56.0879 111.335C55.7579 110.775 55.5929 110.14 55.5929 109.43C55.5929 108.73 55.7529 108.1 56.0729 107.54C56.4029 106.98 56.8429 106.54 57.3929 106.22C57.9529 105.89 58.5779 105.725 59.2679 105.725C59.9279 105.725 60.5079 105.875 61.0079 106.175C61.5179 106.475 61.9129 106.89 62.1929 107.42C62.4829 107.95 62.6279 108.55 62.6279 109.22C62.6279 109.32 62.6229 109.43 62.6129 109.55C62.6029 109.66 62.5829 109.79 62.5529 109.94H56.5379V108.815H61.8329L61.3379 109.25C61.3379 108.77 61.2529 108.365 61.0829 108.035C60.9129 107.695 60.6729 107.435 60.3629 107.255C60.0529 107.065 59.6779 106.97 59.2379 106.97C58.7779 106.97 58.3729 107.07 58.0229 107.27C57.6729 107.47 57.4029 107.75 57.2129 108.11C57.0229 108.47 56.9279 108.895 56.9279 109.385C56.9279 109.885 57.0279 110.325 57.2279 110.705C57.4279 111.075 57.7129 111.365 58.0829 111.575C58.4529 111.775 58.8779 111.875 59.3579 111.875C59.7579 111.875 60.1229 111.805 60.4529 111.665C60.7929 111.525 61.0829 111.315 61.3229 111.035L62.1929 111.92C61.8529 112.32 61.4329 112.625 60.9329 112.835C60.4429 113.045 59.9179 113.15 59.3579 113.15Z" fill="#E3E6F8"/>
<path d="M63.6498 113V102.29H64.9998V113H63.6498Z" fill="#E3E6F8"/>
<path d="M71.565 113V108.845C71.565 108.305 71.395 107.86 71.055 107.51C70.715 107.16 70.275 106.985 69.735 106.985C69.375 106.985 69.055 107.065 68.775 107.225C68.495 107.385 68.275 107.605 68.115 107.885C67.955 108.165 67.875 108.485 67.875 108.845L67.32 108.53C67.32 107.99 67.44 107.51 67.68 107.09C67.92 106.67 68.255 106.34 68.685 106.1C69.115 105.85 69.6 105.725 70.14 105.725C70.68 105.725 71.155 105.845 71.565 106.085C71.985 106.325 72.315 106.66 72.555 107.09C72.795 107.52 72.915 108.015 72.915 108.575V113H71.565ZM66.525 113V102.29H67.875V113H66.525Z" fill="#E3E6F8"/>
<path d="M77.5478 113.15C76.8478 113.15 76.2178 112.985 75.6578 112.655C75.0978 112.325 74.6528 111.88 74.3228 111.32C73.9928 110.75 73.8278 110.115 73.8278 109.415C73.8278 108.725 73.9928 108.105 74.3228 107.555C74.6528 106.995 75.0978 106.55 75.6578 106.22C76.2178 105.89 76.8478 105.725 77.5478 105.725C78.2378 105.725 78.8628 105.89 79.4228 106.22C79.9928 106.54 80.4428 106.98 80.7728 107.54C81.1028 108.1 81.2678 108.725 81.2678 109.415C81.2678 110.115 81.1028 110.75 80.7728 111.32C80.4428 111.88 79.9928 112.325 79.4228 112.655C78.8628 112.985 78.2378 113.15 77.5478 113.15ZM77.5478 111.845C77.9978 111.845 78.3978 111.74 78.7478 111.53C79.0978 111.32 79.3728 111.035 79.5728 110.675C79.7728 110.305 79.8728 109.885 79.8728 109.415C79.8728 108.955 79.7678 108.545 79.5578 108.185C79.3578 107.825 79.0828 107.545 78.7328 107.345C78.3928 107.135 77.9978 107.03 77.5478 107.03C77.0978 107.03 76.6978 107.135 76.3478 107.345C75.9978 107.545 75.7228 107.825 75.5228 108.185C75.3228 108.545 75.2228 108.955 75.2228 109.415C75.2228 109.885 75.3228 110.305 75.5228 110.675C75.7228 111.035 75.9978 111.32 76.3478 111.53C76.6978 111.74 77.0978 111.845 77.5478 111.845Z" fill="#E3E6F8"/>
<path d="M82.3389 113V105.875H83.6889V113H82.3389ZM83.6889 108.935L83.1789 108.71C83.1789 107.8 83.3889 107.075 83.8089 106.535C84.2289 105.995 84.8339 105.725 85.6239 105.725C85.9839 105.725 86.3089 105.79 86.5989 105.92C86.8889 106.04 87.1589 106.245 87.4089 106.535L86.5239 107.45C86.3739 107.29 86.2089 107.175 86.0289 107.105C85.8489 107.035 85.6389 107 85.3989 107C84.8989 107 84.4889 107.16 84.1689 107.48C83.8489 107.8 83.6889 108.285 83.6889 108.935Z" fill="#E3E6F8"/>
<path d="M90.8432 113V105.875H92.1932V113H90.8432ZM92.1932 108.935L91.6832 108.71C91.6832 107.8 91.8932 107.075 92.3132 106.535C92.7332 105.995 93.3382 105.725 94.1282 105.725C94.4882 105.725 94.8132 105.79 95.1032 105.92C95.3932 106.04 95.6632 106.245 95.9132 106.535L95.0282 107.45C94.8782 107.29 94.7132 107.175 94.5332 107.105C94.3532 107.035 94.1432 107 93.9032 107C93.4032 107 92.9932 107.16 92.6732 107.48C92.3532 107.8 92.1932 108.285 92.1932 108.935Z" fill="#E3E6F8"/>
<path d="M99.4793 113.15C98.7693 113.15 98.1293 112.99 97.5593 112.67C96.9893 112.34 96.5393 111.895 96.2093 111.335C95.8793 110.775 95.7143 110.14 95.7143 109.43C95.7143 108.73 95.8743 108.1 96.1943 107.54C96.5243 106.98 96.9643 106.54 97.5143 106.22C98.0743 105.89 98.6993 105.725 99.3893 105.725C100.049 105.725 100.629 105.875 101.129 106.175C101.639 106.475 102.034 106.89 102.314 107.42C102.604 107.95 102.749 108.55 102.749 109.22C102.749 109.32 102.744 109.43 102.734 109.55C102.724 109.66 102.704 109.79 102.674 109.94H96.6593V108.815H101.954L101.459 109.25C101.459 108.77 101.374 108.365 101.204 108.035C101.034 107.695 100.794 107.435 100.484 107.255C100.174 107.065 99.7993 106.97 99.3593 106.97C98.8993 106.97 98.4943 107.07 98.1443 107.27C97.7943 107.47 97.5243 107.75 97.3343 108.11C97.1443 108.47 97.0493 108.895 97.0493 109.385C97.0493 109.885 97.1493 110.325 97.3493 110.705C97.5493 111.075 97.8343 111.365 98.2043 111.575C98.5743 111.775 98.9993 111.875 99.4793 111.875C99.8793 111.875 100.244 111.805 100.574 111.665C100.914 111.525 101.204 111.315 101.444 111.035L102.314 111.92C101.974 112.32 101.554 112.625 101.054 112.835C100.564 113.045 100.039 113.15 99.4793 113.15Z" fill="#E3E6F8"/>
<path d="M104.572 113V104.81C104.572 104.28 104.687 103.82 104.917 103.43C105.147 103.03 105.462 102.715 105.862 102.485C106.272 102.255 106.747 102.14 107.287 102.14C107.697 102.14 108.052 102.21 108.352 102.35C108.652 102.49 108.927 102.695 109.177 102.965L108.292 103.835C108.162 103.695 108.017 103.59 107.857 103.52C107.697 103.44 107.502 103.4 107.272 103.4C106.842 103.4 106.507 103.525 106.267 103.775C106.037 104.025 105.922 104.37 105.922 104.81V113H104.572ZM102.817 107.105V105.875H108.187V107.105H102.817Z" fill="#E3E6F8"/>
<path d="M108.829 113V105.875H110.179V113H108.829ZM110.179 108.935L109.669 108.71C109.669 107.8 109.879 107.075 110.299 106.535C110.719 105.995 111.324 105.725 112.114 105.725C112.474 105.725 112.799 105.79 113.089 105.92C113.379 106.04 113.649 106.245 113.899 106.535L113.014 107.45C112.864 107.29 112.699 107.175 112.519 107.105C112.339 107.035 112.129 107 111.889 107C111.389 107 110.979 107.16 110.659 107.48C110.339 107.8 110.179 108.285 110.179 108.935Z" fill="#E3E6F8"/>
<path d="M114.415 113V105.875H115.765V113H114.415ZM115.09 104.45C114.84 104.45 114.635 104.37 114.475 104.21C114.315 104.04 114.235 103.83 114.235 103.58C114.235 103.34 114.315 103.14 114.475 102.98C114.635 102.81 114.84 102.725 115.09 102.725C115.34 102.725 115.545 102.81 115.705 102.98C115.865 103.14 115.945 103.34 115.945 103.58C115.945 103.83 115.865 104.04 115.705 104.21C115.545 104.37 115.34 104.45 115.09 104.45Z" fill="#E3E6F8"/>
<path d="M56.9676 127.15C56.3076 127.15 55.7176 126.99 55.1976 126.67C54.6776 126.34 54.2626 125.895 53.9526 125.335C53.6526 124.775 53.5026 124.145 53.5026 123.445C53.5026 122.745 53.6526 122.115 53.9526 121.555C54.2626 120.995 54.6776 120.55 55.1976 120.22C55.7176 119.89 56.3076 119.725 56.9676 119.725C57.4976 119.725 57.9776 119.84 58.4076 120.07C58.8376 120.29 59.1826 120.6 59.4426 121C59.7126 121.39 59.8626 121.845 59.8926 122.365V124.51C59.8626 125.02 59.7176 125.475 59.4576 125.875C59.1976 126.275 58.8526 126.59 58.4226 126.82C57.9926 127.04 57.5076 127.15 56.9676 127.15ZM57.1926 125.875C57.6426 125.875 58.0326 125.77 58.3626 125.56C58.7026 125.35 58.9676 125.065 59.1576 124.705C59.3476 124.335 59.4426 123.915 59.4426 123.445C59.4426 122.955 59.3426 122.53 59.1426 122.17C58.9526 121.81 58.6876 121.525 58.3476 121.315C58.0176 121.105 57.6276 121 57.1776 121C56.7276 121 56.3326 121.105 55.9926 121.315C55.6526 121.525 55.3826 121.815 55.1826 122.185C54.9926 122.545 54.8976 122.96 54.8976 123.43C54.8976 123.91 54.9926 124.335 55.1826 124.705C55.3826 125.065 55.6526 125.35 55.9926 125.56C56.3426 125.77 56.7426 125.875 57.1926 125.875ZM60.7176 127H59.3526V125.08L59.6076 123.34L59.3526 121.615V116.29H60.7176V127Z" fill="#E3E6F8"/>
<path d="M65.4881 127.15C64.7881 127.15 64.1581 126.985 63.5981 126.655C63.0381 126.325 62.5931 125.88 62.2631 125.32C61.9331 124.75 61.7681 124.115 61.7681 123.415C61.7681 122.725 61.9331 122.105 62.2631 121.555C62.5931 120.995 63.0381 120.55 63.5981 120.22C64.1581 119.89 64.7881 119.725 65.4881 119.725C66.1781 119.725 66.8031 119.89 67.3631 120.22C67.9331 120.54 68.3831 120.98 68.7131 121.54C69.0431 122.1 69.2081 122.725 69.2081 123.415C69.2081 124.115 69.0431 124.75 68.7131 125.32C68.3831 125.88 67.9331 126.325 67.3631 126.655C66.8031 126.985 66.1781 127.15 65.4881 127.15ZM65.4881 125.845C65.9381 125.845 66.338 125.74 66.688 125.53C67.038 125.32 67.3131 125.035 67.5131 124.675C67.7131 124.305 67.813 123.885 67.813 123.415C67.813 122.955 67.7081 122.545 67.4981 122.185C67.2981 121.825 67.023 121.545 66.673 121.345C66.333 121.135 65.9381 121.03 65.4881 121.03C65.0381 121.03 64.6381 121.135 64.2881 121.345C63.9381 121.545 63.6631 121.825 63.4631 122.185C63.2631 122.545 63.1631 122.955 63.1631 123.415C63.1631 123.885 63.2631 124.305 63.4631 124.675C63.6631 125.035 63.9381 125.32 64.2881 125.53C64.6381 125.74 65.0381 125.845 65.4881 125.845Z" fill="#E3E6F8"/>
<path d="M76.6993 127.15C76.1593 127.15 75.6693 127.04 75.2293 126.82C74.7993 126.59 74.4543 126.275 74.1943 125.875C73.9343 125.475 73.7893 125.02 73.7593 124.51V122.365C73.7893 121.845 73.9343 121.39 74.1943 121C74.4643 120.6 74.8143 120.29 75.2443 120.07C75.6843 119.84 76.1693 119.725 76.6993 119.725C77.3493 119.725 77.9343 119.89 78.4543 120.22C78.9843 120.55 79.3993 120.995 79.6993 121.555C79.9993 122.115 80.1493 122.745 80.1493 123.445C80.1493 124.145 79.9993 124.775 79.6993 125.335C79.3993 125.895 78.9843 126.34 78.4543 126.67C77.9343 126.99 77.3493 127.15 76.6993 127.15ZM72.9493 127V116.29H74.2993V121.615L74.0443 123.34L74.2993 125.08V127H72.9493ZM76.4743 125.875C76.9243 125.875 77.3193 125.77 77.6593 125.56C77.9993 125.35 78.2693 125.065 78.4693 124.705C78.6693 124.335 78.7693 123.91 78.7693 123.43C78.7693 122.96 78.6693 122.54 78.4693 122.17C78.2693 121.8 77.9993 121.515 77.6593 121.315C77.3193 121.105 76.9293 121 76.4893 121C76.0393 121 75.6443 121.105 75.3043 121.315C74.9643 121.515 74.6993 121.8 74.5093 122.17C74.3193 122.54 74.2243 122.965 74.2243 123.445C74.2243 123.915 74.3143 124.335 74.4943 124.705C74.6843 125.065 74.9493 125.35 75.2893 125.56C75.6393 125.77 76.0343 125.875 76.4743 125.875Z" fill="#E3E6F8"/>
<path d="M81.2297 127V119.875H82.5797V127H81.2297ZM82.5797 122.935L82.0697 122.71C82.0697 121.8 82.2797 121.075 82.6997 120.535C83.1197 119.995 83.7247 119.725 84.5147 119.725C84.8747 119.725 85.1997 119.79 85.4897 119.92C85.7797 120.04 86.0497 120.245 86.2997 120.535L85.4147 121.45C85.2647 121.29 85.0997 121.175 84.9197 121.105C84.7397 121.035 84.5297 121 84.2897 121C83.7897 121 83.3797 121.16 83.0597 121.48C82.7397 121.8 82.5797 122.285 82.5797 122.935Z" fill="#E3E6F8"/>
<path d="M89.5959 127.15C88.9459 127.15 88.3559 126.99 87.8259 126.67C87.2959 126.34 86.8759 125.895 86.5659 125.335C86.2659 124.775 86.1159 124.145 86.1159 123.445C86.1159 122.745 86.2659 122.115 86.5659 121.555C86.8759 120.995 87.2909 120.55 87.8109 120.22C88.3409 119.89 88.9359 119.725 89.5959 119.725C90.1359 119.725 90.6159 119.84 91.0359 120.07C91.4659 120.29 91.8109 120.6 92.0709 121C92.3309 121.39 92.4759 121.845 92.5059 122.365V124.51C92.4759 125.02 92.3309 125.475 92.0709 125.875C91.8209 126.275 91.4809 126.59 91.0509 126.82C90.6309 127.04 90.1459 127.15 89.5959 127.15ZM89.8209 125.875C90.4909 125.875 91.0309 125.65 91.4409 125.2C91.8509 124.74 92.0559 124.155 92.0559 123.445C92.0559 122.955 91.9609 122.53 91.7709 122.17C91.5909 121.8 91.3309 121.515 90.9909 121.315C90.6509 121.105 90.2559 121 89.8059 121C89.3559 121 88.9559 121.105 88.6059 121.315C88.2659 121.525 87.9959 121.815 87.7959 122.185C87.6059 122.545 87.5109 122.96 87.5109 123.43C87.5109 123.91 87.6059 124.335 87.7959 124.705C87.9959 125.065 88.2709 125.35 88.6209 125.56C88.9709 125.77 89.3709 125.875 89.8209 125.875ZM91.9659 127V125.08L92.2209 123.34L91.9659 121.615V119.875H93.3309V127H91.9659Z" fill="#E3E6F8"/>
<path d="M97.1113 127.15C96.7113 127.15 96.3313 127.1 95.9713 127C95.6213 126.89 95.2963 126.74 94.9963 126.55C94.6963 126.35 94.4363 126.115 94.2163 125.845L95.0863 124.975C95.3463 125.295 95.6463 125.535 95.9863 125.695C96.3263 125.845 96.7063 125.92 97.1263 125.92C97.5463 125.92 97.8713 125.85 98.1013 125.71C98.3313 125.56 98.4463 125.355 98.4463 125.095C98.4463 124.835 98.3513 124.635 98.1613 124.495C97.9813 124.345 97.7463 124.225 97.4563 124.135C97.1663 124.035 96.8563 123.94 96.5263 123.85C96.2063 123.75 95.9013 123.625 95.6113 123.475C95.3213 123.325 95.0813 123.12 94.8913 122.86C94.7113 122.6 94.6213 122.255 94.6213 121.825C94.6213 121.395 94.7263 121.025 94.9363 120.715C95.1463 120.395 95.4363 120.15 95.8063 119.98C96.1863 119.81 96.6413 119.725 97.1713 119.725C97.7313 119.725 98.2263 119.825 98.6563 120.025C99.0963 120.215 99.4563 120.505 99.7363 120.895L98.8663 121.765C98.6663 121.505 98.4163 121.305 98.1163 121.165C97.8263 121.025 97.4963 120.955 97.1263 120.955C96.7363 120.955 96.4363 121.025 96.2263 121.165C96.0263 121.295 95.9263 121.48 95.9263 121.72C95.9263 121.96 96.0163 122.145 96.1963 122.275C96.3763 122.405 96.6113 122.515 96.9013 122.605C97.2013 122.695 97.5113 122.79 97.8313 122.89C98.1513 122.98 98.4563 123.105 98.7463 123.265C99.0363 123.425 99.2713 123.64 99.4513 123.91C99.6413 124.18 99.7363 124.535 99.7363 124.975C99.7363 125.645 99.4963 126.175 99.0163 126.565C98.5463 126.955 97.9113 127.15 97.1113 127.15Z" fill="#E3E6F8"/>
<path d="M100.813 127V119.875H102.163V127H100.813ZM101.488 118.45C101.238 118.45 101.033 118.37 100.873 118.21C100.713 118.04 100.633 117.83 100.633 117.58C100.633 117.34 100.713 117.14 100.873 116.98C101.033 116.81 101.238 116.725 101.488 116.725C101.738 116.725 101.943 116.81 102.103 116.98C102.263 117.14 102.343 117.34 102.343 117.58C102.343 117.83 102.263 118.04 102.103 118.21C101.943 118.37 101.738 118.45 101.488 118.45Z" fill="#E3E6F8"/>
<path d="M103.702 127V116.29H105.052V127H103.702Z" fill="#E3E6F8"/>
</svg>
