<svg width="342" height="350" viewBox="0 0 342 350" fill="none" xmlns="http://www.w3.org/2000/svg">
<path d="M234.41 178.998C225.227 169.815 225.227 154.927 234.41 145.744C242.55 137.604 255.386 136.554 264.74 143.263L279.261 153.677L293.782 143.263C303.137 136.554 315.973 137.604 324.113 145.744C333.296 154.927 333.296 169.815 324.113 178.998L279.261 223.849L234.41 178.998Z" fill="#D4F371"/>
<path d="M291.298 295.35C272.652 312.485 250.352 325.163 226.085 332.424C201.817 339.686 176.215 341.341 151.215 337.265C126.215 333.19 102.469 323.489 81.7726 308.898C61.0762 294.306 43.9701 275.204 31.747 253.036C19.5239 230.867 12.5034 206.212 11.216 180.933C9.92865 155.655 14.4081 130.413 24.3158 107.116C34.2236 83.8193 49.3005 63.0766 68.4074 46.455C87.5142 29.8335 109.6 17.5978 134.056 11C134.056 11 146.657 115.294 178.155 172.421C209.653 229.547 291.298 295.35 291.298 295.35Z" fill="#D4F371"/>
<path d="M291.298 295.35C276.632 306.559 277.325 290.039 281.892 299.291C257.624 306.552 232.023 308.208 207.022 304.132C182.022 300.056 158.276 290.356 137.58 275.764C116.883 261.172 99.7773 242.071 87.5541 219.902C75.331 197.734 68.3105 173.079 67.0232 147.8C65.7358 122.521 70.2152 97.2797 80.123 73.9829C90.0307 50.686 96.691 39.8625 115.798 23.241C131.694 10.9015 134.056 11 134.056 11C134.056 11 145.3 109.582 175.991 167.602C206.493 225.266 291.298 295.35 291.298 295.35Z" fill="#DDE5C3"/>
<path d="M275.596 227.515L279.261 231.181L282.927 227.515L327.779 182.664C338.986 171.456 338.986 153.286 327.779 142.078C317.844 132.144 302.178 130.862 290.761 139.05L279.261 147.297L267.762 139.05C256.345 130.862 240.679 132.144 230.744 142.078C219.537 153.286 219.537 171.456 230.744 182.664L275.596 227.515ZM294.806 299.167L299.185 295.142L294.601 291.354L294.59 291.367C294.601 291.354 294.601 291.354 294.601 291.354L294.599 291.352L294.589 291.344L294.552 291.314L294.546 291.309L294.371 291.163C294.215 291.033 293.98 290.837 293.671 290.577C293.052 290.059 292.137 289.287 290.959 288.282C288.603 286.272 285.196 283.331 281.01 279.619C272.635 272.194 261.152 261.697 248.727 249.413C223.758 224.729 195.428 193.26 180.573 165.178C175.581 155.74 171.101 145.168 167.102 134.091C159.614 112.865 153.751 89.7674 149.364 69.2061C145.844 52.7121 143.301 37.9859 141.639 27.3854C140.808 22.0867 140.197 17.8229 139.795 14.8892C139.594 13.4225 139.446 12.2886 139.347 11.5244C139.298 11.1423 139.262 10.8526 139.238 10.6601L139.211 10.4446L139.207 10.4146L139.207 10.4125L139.205 10.3926L139.203 10.3807L139.203 10.3782L138.675 6.00418L134.273 5.82053L134.056 11C134.273 5.82053 134.259 5.81997 134.245 5.81945L134.217 5.81852L134.163 5.81711C134.149 5.81684 134.136 5.81661 134.123 5.81644C134.1 5.81615 134.078 5.81601 134.056 5.816C133.986 5.81598 133.917 5.81737 133.85 5.81993C133.717 5.82504 133.59 5.83489 133.469 5.84798C133.228 5.87399 133.002 5.91404 132.792 5.96106C132.518 6.02222 132.246 6.10128 131.973 6.19467C106.995 13.0572 84.4693 25.6113 65.0049 42.5438C45.3055 59.6809 29.7607 81.0673 19.5453 105.087C9.32997 129.108 4.71137 155.133 6.03872 181.197C7.36608 207.261 14.6047 232.682 27.2074 255.539C39.81 278.395 57.447 298.09 78.7855 313.134C100.124 328.179 124.606 338.18 150.381 342.382C176.156 346.584 202.551 344.877 227.571 337.391C252.591 329.904 275.582 316.834 294.806 299.167Z" stroke="#E3E6F8" stroke-width="10.368"/>
</svg>
