<svg width="366" height="653" viewBox="0 0 366 653" fill="none" xmlns="http://www.w3.org/2000/svg">
<path d="M38.0613 92.8203C29.824 92.8203 23.8767 90.7695 20.2195 86.668C16.5964 82.5664 14.7849 76.0381 14.7849 67.083V58.2646H32.6267V69.5439C32.6267 71.6289 32.9343 73.2695 33.5495 74.4658C34.199 75.6279 35.3098 76.209 36.8821 76.209C38.5227 76.209 39.6506 75.7305 40.2659 74.7734C40.9153 73.8164 41.24 72.2441 41.24 70.0566C41.24 67.2881 40.9665 64.981 40.4197 63.1353C39.8728 61.2554 38.9158 59.478 37.5486 57.8032C36.2156 56.0942 34.3528 54.1118 31.9602 51.856L23.8596 44.1655C17.8098 38.4575 14.7849 31.9292 14.7849 24.5806C14.7849 16.8901 16.5622 11.0283 20.1169 6.99512C23.7058 2.96191 28.884 0.945312 35.6516 0.945312C43.9231 0.945312 49.7849 3.1499 53.237 7.55908C56.7234 11.9683 58.4665 18.6675 58.4665 27.6567H40.112V21.4531C40.112 20.2227 39.7532 19.2656 39.0354 18.582C38.3518 17.8984 37.4118 17.5566 36.2156 17.5566C34.78 17.5566 33.7204 17.9668 33.0368 18.7871C32.3874 19.5732 32.0627 20.5986 32.0627 21.8633C32.0627 23.1279 32.4045 24.4951 33.0881 25.9648C33.7717 27.4346 35.1218 29.1265 37.1384 31.0405L47.5461 41.0381C49.6311 43.0205 51.5452 45.1226 53.2883 47.3442C55.0315 49.5317 56.4328 52.0952 57.4924 55.0347C58.552 57.9399 59.0818 61.4946 59.0818 65.6987C59.0818 74.1753 57.5095 80.8232 54.365 85.6426C51.2546 90.4277 45.8201 92.8203 38.0613 92.8203ZM61.1613 92V1.76562H78.5929V92H61.1613ZM103.641 92.8203C97.1128 92.8203 91.8492 90.7866 87.8501 86.7192C83.8853 82.6519 81.9029 76.9609 81.9029 69.6465V28.0156C81.9029 19.2656 83.6289 12.5664 87.0811 7.91797C90.5674 3.26953 96.2242 0.945312 104.051 0.945312C108.324 0.945312 112.118 1.73145 115.433 3.30371C118.783 4.87598 121.415 7.23438 123.329 10.3789C125.243 13.4893 126.2 17.4199 126.2 22.1709V37.7568H108.255V24.4268C108.255 21.7266 107.914 19.915 107.23 18.9922C106.546 18.0352 105.487 17.5566 104.051 17.5566C102.376 17.5566 101.249 18.1719 100.668 19.4023C100.086 20.5986 99.7959 22.2051 99.7959 24.2217V69.3901C99.7959 71.8853 100.155 73.6455 100.873 74.6709C101.625 75.6963 102.684 76.209 104.051 76.209C105.589 76.209 106.666 75.5767 107.281 74.312C107.931 73.0474 108.255 71.4067 108.255 69.3901V53.1377H126.405V70.2104C126.405 78.1401 124.405 83.8994 120.406 87.4883C116.407 91.043 110.819 92.8203 103.641 92.8203ZM128.484 92V1.76562H145.916V92H128.484ZM149.944 92V1.76562H167.991V76.6191H186.55V92H149.944ZM187.707 92V1.76562H205.138V92H187.707ZM206.705 92L215.421 1.76562H246.029L254.591 92H237.518L236.236 77.4395H225.367L224.239 92H206.705ZM226.649 63.0327H234.852L230.904 17.1465H230.084L226.649 63.0327ZM256.978 92V1.76562H275.538L283.843 44.9858V1.76562H301.275V92H283.638L274.615 46.8828V92H256.978ZM327.656 92.8203C320.444 92.8203 314.924 90.6499 311.096 86.3091C307.302 81.9341 305.405 75.6279 305.405 67.3906V24.5293C305.405 16.8047 307.285 10.9429 311.045 6.94385C314.839 2.94482 320.376 0.945312 327.656 0.945312C334.936 0.945312 340.456 2.94482 344.216 6.94385C348.01 10.9429 349.907 16.8047 349.907 24.5293V67.3906C349.907 75.6279 347.993 81.9341 344.165 86.3091C340.371 90.6499 334.868 92.8203 327.656 92.8203ZM327.81 76.209C330.544 76.209 331.912 73.5601 331.912 68.2622V24.2217C331.912 19.7783 330.579 17.5566 327.913 17.5566C324.905 17.5566 323.401 19.8296 323.401 24.3755V68.3647C323.401 71.1675 323.743 73.1841 324.426 74.4146C325.11 75.6108 326.238 76.209 327.81 76.209Z" fill="#E3E6F8"/>
<path d="M110.819 207.2V134.295H100.104V116.966H139.581V134.295H128.866V207.2H110.819ZM137.662 207.2L146.377 116.966H176.985L185.547 207.2H168.475L167.193 192.639H156.324L155.196 207.2H137.662ZM157.605 178.233H165.809L161.861 132.346H161.04L157.605 178.233ZM187.114 207.2V116.966H204.546V207.2H187.114ZM216.315 207.2V134.295H205.6V116.966H245.077V134.295H234.362V207.2H216.315ZM246.131 207.2V116.966H263.563V207.2H246.131Z" fill="#E3E6F8"/>
<path d="M68.9173 323.22C56.0316 323.22 49.5887 313.992 49.5887 295.535V256.621C49.5887 239.771 56.9715 231.345 71.7371 231.345C77.8211 231.345 82.4866 232.576 85.7337 235.037C88.9808 237.463 91.2196 241.018 92.45 245.701C93.6805 250.383 94.2957 256.091 94.2957 262.825H76.659V254.827C76.659 252.879 76.3856 251.255 75.8387 249.956C75.326 248.623 74.2323 247.957 72.5574 247.957C70.4725 247.957 69.0882 248.657 68.4046 250.059C67.7552 251.46 67.4305 252.998 67.4305 254.673V298.406C67.4305 300.833 67.7381 302.815 68.3533 304.353C69.0028 305.857 70.2503 306.609 72.096 306.609C74.0101 306.609 75.2747 305.857 75.89 304.353C76.5394 302.815 76.8641 300.798 76.8641 298.303V285.435H72.0448V269.849H94.0907V322.4H86.8616L83.7855 314.812C80.6409 320.418 75.6849 323.22 68.9173 323.22ZM95.6574 322.4L104.373 232.166H134.981L143.543 322.4H126.47L125.189 307.839H114.32L113.192 322.4H95.6574ZM115.601 293.433H123.804L119.857 247.546H119.036L115.601 293.433ZM145.93 322.4V232.166H163.977V307.019H182.537V322.4H145.93ZM184.514 322.4V232.166H220.607V249.597H202.868V267.183H219.89V284.153H202.868V304.815H221.787V322.4H184.514ZM243.246 323.22C230.36 323.22 223.917 313.992 223.917 295.535V256.621C223.917 239.771 231.3 231.345 246.066 231.345C252.15 231.345 256.815 232.576 260.062 235.037C263.309 237.463 265.548 241.018 266.779 245.701C268.009 250.383 268.624 256.091 268.624 262.825H250.988V254.827C250.988 252.879 250.714 251.255 250.167 249.956C249.655 248.623 248.561 247.957 246.886 247.957C244.801 247.957 243.417 248.657 242.733 250.059C242.084 251.46 241.759 252.998 241.759 254.673V298.406C241.759 300.833 242.067 302.815 242.682 304.353C243.331 305.857 244.579 306.609 246.425 306.609C248.339 306.609 249.603 305.857 250.219 304.353C250.868 302.815 251.193 300.798 251.193 298.303V285.435H246.373V269.849H268.419V322.4H261.19L258.114 314.812C254.97 320.418 250.014 323.22 243.246 323.22ZM293.98 323.22C286.768 323.22 281.248 321.05 277.42 316.709C273.626 312.334 271.729 306.028 271.729 297.791V254.929C271.729 247.205 273.609 241.343 277.369 237.344C281.163 233.345 286.7 231.345 293.98 231.345C301.261 231.345 306.781 233.345 310.54 237.344C314.334 241.343 316.231 247.205 316.231 254.929V297.791C316.231 306.028 314.317 312.334 310.489 316.709C306.695 321.05 301.192 323.22 293.98 323.22ZM294.134 306.609C296.868 306.609 298.236 303.96 298.236 298.662V254.622C298.236 250.178 296.903 247.957 294.237 247.957C291.229 247.957 289.725 250.23 289.725 254.775V298.765C289.725 301.567 290.067 303.584 290.75 304.815C291.434 306.011 292.562 306.609 294.134 306.609Z" fill="#E3E6F8"/>
<path d="M67.8776 438.42C61.3492 438.42 56.0856 436.387 52.0865 432.319C48.1217 428.252 46.1393 422.561 46.1393 415.246V373.616C46.1393 364.866 47.8654 358.166 51.3175 353.518C54.8038 348.87 60.4606 346.545 68.2877 346.545C72.5602 346.545 76.3541 347.331 79.6696 348.904C83.0192 350.476 85.651 352.834 87.5651 355.979C89.4791 359.089 90.4362 363.02 90.4362 367.771V383.357H72.4918V370.027C72.4918 367.327 72.15 365.515 71.4664 364.592C70.7828 363.635 69.7233 363.157 68.2877 363.157C66.6129 363.157 65.485 363.772 64.9039 365.002C64.3229 366.199 64.0323 367.805 64.0323 369.822V414.99C64.0323 417.485 64.3912 419.245 65.109 420.271C65.861 421.296 66.9205 421.809 68.2877 421.809C69.8258 421.809 70.9025 421.177 71.5177 419.912C72.1671 418.647 72.4918 417.007 72.4918 414.99V398.738H90.6412V415.81C90.6412 423.74 88.6417 429.499 84.6427 433.088C80.6437 436.643 75.0553 438.42 67.8776 438.42ZM91.0801 437.6L99.7959 347.366H130.404L138.966 437.6H121.893L120.611 423.039H109.742L108.614 437.6H91.0801ZM111.024 408.633H119.227L115.279 362.746H114.459L111.024 408.633ZM140.533 437.6V347.366H157.964V437.6H140.533ZM161.992 437.6V347.366H185.832C190.823 347.366 194.77 348.476 197.676 350.698C200.615 352.92 202.717 356.081 203.982 360.183C205.246 364.285 205.879 369.172 205.879 374.846C205.879 380.315 205.349 385.083 204.289 389.15C203.23 393.183 201.333 396.311 198.598 398.533C195.898 400.754 192.053 401.865 187.063 401.865H179.731V437.6H161.992ZM179.731 385.664H180.757C184.106 385.664 186.157 384.724 186.909 382.844C187.661 380.964 188.037 378.196 188.037 374.538C188.037 371.12 187.661 368.489 186.909 366.643C186.191 364.763 184.465 363.823 181.731 363.823H179.731V385.664ZM207.651 437.6V347.366H225.082V437.6H207.651ZM229.11 437.6V347.366H256.796C261.41 347.366 264.896 348.425 267.255 350.544C269.613 352.629 271.185 355.569 271.971 359.363C272.792 363.122 273.202 367.549 273.202 372.641C273.202 377.563 272.569 381.494 271.305 384.433C270.074 387.373 267.733 389.407 264.281 390.535C267.118 391.116 269.1 392.534 270.228 394.79C271.39 397.012 271.971 399.9 271.971 403.454V437.6H254.181V402.275C254.181 399.643 253.634 398.02 252.54 397.405C251.481 396.755 249.755 396.431 247.362 396.431V437.6H229.11ZM247.464 380.793H251.822C254.318 380.793 255.565 378.076 255.565 372.641C255.565 369.121 255.292 366.814 254.745 365.72C254.198 364.626 253.172 364.079 251.669 364.079H247.464V380.793ZM273.538 437.6L282.254 347.366H312.862L321.424 437.6H304.351L303.069 423.039H292.2L291.072 437.6H273.538ZM293.482 408.633H301.685L297.737 362.746H296.917L293.482 408.633Z" fill="#E3E6F8"/>
<path d="M92.5254 543.72V463.622H117.428C123.931 463.622 128.809 465.436 132.061 469.064C135.347 472.658 136.99 477.93 136.99 484.878V516.918C136.99 525.475 135.501 532.081 132.523 536.737C129.545 541.392 124.308 543.72 116.812 543.72H92.5254ZM110.702 527.751H113.834C117.154 527.751 118.814 526.143 118.814 522.925V486.573C118.814 483.56 118.403 481.626 117.582 480.771C116.794 479.881 115.169 479.436 112.704 479.436H110.702V527.751Z" fill="#D4F371"/>
<path d="M162.794 536.129C155.4 536.129 149.838 533.904 146.107 529.454C142.376 524.97 140.51 518.706 140.51 510.662V486.419C140.51 478.648 142.41 472.778 146.21 468.807C150.043 464.802 155.572 462.8 162.794 462.8C170.051 462.8 175.579 464.802 179.378 468.807C183.178 472.778 185.078 478.648 185.078 486.419V510.662C185.078 518.706 183.212 524.97 179.481 529.454C175.75 533.904 170.188 536.129 162.794 536.129ZM162.948 520.007C164.66 520.007 165.772 519.236 166.286 517.696C166.799 516.121 167.056 514.239 167.056 512.048V485.597C167.056 483.988 166.833 482.482 166.388 481.079C165.943 479.641 164.831 478.922 163.051 478.922C161.305 478.922 160.107 479.59 159.457 480.925C158.841 482.226 158.532 483.834 158.532 485.751V512.151C158.532 514.513 158.806 516.412 159.354 517.85C159.902 519.288 161.1 520.007 162.948 520.007Z" fill="#D4F371"/>
<path d="M210.266 536.129C203.728 536.129 198.456 534.092 194.451 530.019C190.481 525.945 188.495 520.246 188.495 512.921V489.91C188.495 481.147 190.224 474.438 193.681 469.783C197.173 465.128 202.838 462.8 210.676 462.8C214.955 462.8 218.755 463.587 222.075 465.162C225.429 466.736 228.065 469.098 229.982 472.247C231.899 475.362 232.857 479.299 232.857 484.057V498.433H214.887V485.803C214.887 483.098 214.544 481.284 213.86 480.36C213.175 479.402 212.114 478.922 210.676 478.922C208.999 478.922 207.869 479.538 207.288 480.771C206.706 481.969 206.415 483.578 206.415 485.597V513.178C206.415 515.676 206.774 517.439 207.493 518.466C208.246 519.493 209.307 520.007 210.676 520.007C212.217 520.007 213.295 519.373 213.911 518.107C214.561 516.84 214.887 515.197 214.887 513.178V509.935H233.063V513.486C233.063 521.427 231.06 527.195 227.055 530.789C223.05 534.349 217.454 536.129 210.266 536.129Z" fill="#D4F371"/>
<path d="M235.967 543.72V463.622H272.114V481.079H254.348V494.326H271.395V511.321H254.348V526.108H273.295V543.72H235.967Z" fill="#D4F371"/>
<path d="M140.818 538.812H233.354V544.421H140.818V538.812Z" fill="#D4F371"/>
<path d="M69.9062 650.421V570.441H87.953V635.04H106.513V650.421H69.9062Z" fill="#D4F371"/>
<path d="M107.669 650.421V570.441H125.101V650.421H107.669Z" fill="#D4F371"/>
<path d="M129.128 650.421V570.441H156.609L164.197 618.121L171.733 570.441H199.47V650.421H182.961V595.307L172.605 650.421H156.404L145.432 595.204V650.421H129.128Z" fill="#D4F371"/>
<path d="M201.857 650.421L210.573 583.041H241.181L249.742 650.421H232.67L231.491 635.861H220.416L219.391 650.421H201.857ZM225.236 597.396L221.903 621.454H229.799L226.056 597.396H225.236Z" fill="#D4F371"/>
<path d="M273.663 651.241C266.28 651.241 260.726 649.02 257 644.576C253.275 640.099 251.412 633.844 251.412 625.812V593.205C251.412 585.446 253.309 579.584 257.103 575.619C260.931 571.62 266.451 569.621 273.663 569.621C280.909 569.621 286.429 571.62 290.223 575.619C294.017 579.584 295.914 585.446 295.914 593.205V625.812C295.914 633.844 294.051 640.099 290.325 644.576C286.6 649.02 281.045 651.241 273.663 651.241ZM273.816 635.143C275.525 635.143 276.636 634.374 277.149 632.836C277.662 631.263 277.918 629.384 277.918 627.196V592.384C277.918 590.778 277.696 589.274 277.252 587.873C276.807 586.437 275.696 585.719 273.919 585.719C272.176 585.719 270.98 586.386 270.33 587.719C269.715 589.018 269.407 590.624 269.407 592.538V627.299C269.407 629.657 269.681 631.554 270.228 632.99C270.775 634.425 271.971 635.143 273.816 635.143Z" fill="#D4F371"/>
<path d="M210.575 570.621H241.375V578.321H210.575V570.621Z" fill="#D4F371"/>
</svg>
