<svg width="1742" height="3102" viewBox="0 0 1742 3102" fill="none" xmlns="http://www.w3.org/2000/svg">
<path d="M181.244 437.906C142.019 437.906 113.699 428.141 96.2832 408.609C79.0306 389.078 70.4043 357.991 70.4043 315.348V273.355H155.365V327.066C155.365 336.995 156.83 344.807 159.76 350.504C162.852 356.038 168.142 358.805 175.629 358.805C183.441 358.805 188.812 356.526 191.742 351.969C194.835 347.411 196.381 339.924 196.381 329.508C196.381 316.324 195.079 305.338 192.475 296.549C189.87 287.597 185.313 279.133 178.803 271.158C172.455 263.02 163.585 253.58 152.191 242.838L113.617 206.217C84.8086 179.036 70.4043 147.949 70.4043 112.955C70.4043 76.334 78.8678 48.4206 95.7949 29.2148C112.885 10.0091 137.543 0.40625 169.77 0.40625C209.158 0.40625 237.071 10.9043 253.51 31.9004C270.111 52.8965 278.412 84.7975 278.412 127.604H191.01V98.0625C191.01 92.2031 189.301 87.6458 185.883 84.3906C182.628 81.1354 178.152 79.5078 172.455 79.5078C165.619 79.5078 160.574 81.4609 157.318 85.3672C154.226 89.1107 152.68 93.9935 152.68 100.016C152.68 106.038 154.307 112.548 157.562 119.547C160.818 126.546 167.247 134.602 176.85 143.717L226.41 191.324C236.339 200.764 245.453 210.774 253.754 221.354C262.055 231.77 268.728 243.977 273.773 257.975C278.819 271.809 281.342 288.736 281.342 308.756C281.342 349.12 273.855 380.777 258.881 403.727C244.07 426.513 218.191 437.906 181.244 437.906ZM291.244 434V4.3125H374.252V434H291.244ZM493.529 437.906C462.442 437.906 437.377 428.222 418.334 408.854C399.454 389.485 390.014 362.385 390.014 327.555V129.312C390.014 87.6458 398.233 55.7448 414.672 33.6094C431.273 11.474 458.21 0.40625 495.482 0.40625C515.827 0.40625 533.894 4.14974 549.682 11.6367C565.632 19.1237 578.165 30.3542 587.279 45.3281C596.394 60.1393 600.951 78.8568 600.951 101.48V175.699H515.502V112.223C515.502 99.3646 513.874 90.7383 510.619 86.3438C507.364 81.7865 502.318 79.5078 495.482 79.5078C487.507 79.5078 482.136 82.4375 479.369 88.2969C476.602 93.9935 475.219 101.643 475.219 111.246V326.334C475.219 338.215 476.928 346.598 480.346 351.48C483.926 356.363 488.972 358.805 495.482 358.805C502.807 358.805 507.934 355.794 510.863 349.771C513.956 343.749 515.502 335.937 515.502 326.334V248.941H601.928V330.24C601.928 368.001 592.406 395.426 573.363 412.516C554.32 429.443 527.709 437.906 493.529 437.906ZM611.83 434V4.3125H694.838V434H611.83ZM714.018 434V4.3125H799.955V360.758H888.334V434H714.018ZM893.842 434V4.3125H976.85V434H893.842ZM984.311 434L1025.81 4.3125H1171.57L1212.34 434H1131.04L1124.94 364.664H1073.18L1067.81 434H984.311ZM1079.28 296.061H1118.34L1099.54 77.5547H1095.64L1079.28 296.061ZM1223.71 434V4.3125H1312.08L1351.63 210.123V4.3125H1434.64V434H1350.66L1307.69 219.156V434H1223.71ZM1560.27 437.906C1525.93 437.906 1499.64 427.571 1481.41 406.9C1463.34 386.067 1454.31 356.038 1454.31 316.812V112.711C1454.31 75.9271 1463.26 48.0137 1481.17 28.9707C1499.23 9.92773 1525.6 0.40625 1560.27 0.40625C1594.94 0.40625 1621.22 9.92773 1639.12 28.9707C1657.19 48.0137 1666.22 75.9271 1666.22 112.711V316.812C1666.22 356.038 1657.11 386.067 1638.88 406.9C1620.81 427.571 1594.61 437.906 1560.27 437.906ZM1561 358.805C1574.02 358.805 1580.53 346.191 1580.53 320.963V111.246C1580.53 90.0872 1574.18 79.5078 1561.49 79.5078C1547.17 79.5078 1540 90.3314 1540 111.979V321.451C1540 334.798 1541.63 344.4 1544.89 350.26C1548.14 355.956 1553.51 358.805 1561 358.805Z" fill="#E3E6F8"/>
<path d="M527.709 984V636.832H476.684V554.312H664.672V636.832H613.646V984H527.709ZM655.531 984L697.035 554.312H842.787L883.559 984H802.26L796.156 914.664H744.398L739.027 984H655.531ZM750.502 846.061H789.564L770.766 627.555H766.859L750.502 846.061ZM891.02 984V554.312H974.027V984H891.02ZM1030.07 984V636.832H979.047V554.312H1167.04V636.832H1116.01V984H1030.07ZM1172.05 984V554.312H1255.06V984H1172.05Z" fill="#E3E6F8"/>
<path d="M328.178 1537.91C266.817 1537.91 236.137 1493.96 236.137 1406.07V1220.77C236.137 1140.53 271.293 1100.41 341.605 1100.41C370.577 1100.41 392.794 1106.27 408.256 1117.98C423.718 1129.54 434.379 1146.47 440.238 1168.77C446.098 1191.06 449.027 1218.24 449.027 1250.31H365.043V1212.22C365.043 1202.95 363.741 1195.21 361.137 1189.03C358.695 1182.68 353.487 1179.51 345.512 1179.51C335.583 1179.51 328.992 1182.84 325.736 1189.52C322.644 1196.19 321.098 1203.51 321.098 1211.49V1419.74C321.098 1431.3 322.562 1440.74 325.492 1448.06C328.585 1455.22 334.525 1458.8 343.314 1458.8C352.429 1458.8 358.451 1455.22 361.381 1448.06C364.473 1440.74 366.02 1431.14 366.02 1419.25V1357.97H343.07V1283.76H448.051V1534H413.627L398.979 1497.87C384.005 1524.56 360.404 1537.91 328.178 1537.91ZM455.512 1534L497.016 1104.31H642.768L683.539 1534H602.24L596.137 1464.66H544.379L539.008 1534H455.512ZM550.482 1396.06H589.545L570.746 1177.55H566.84L550.482 1396.06ZM694.906 1534V1104.31H780.844V1460.76H869.223V1534H694.906ZM878.637 1534V1104.31H1050.51V1187.32H966.039V1271.06H1047.09V1351.87H966.039V1450.26H1056.13V1534H878.637ZM1158.31 1537.91C1096.95 1537.91 1066.27 1493.96 1066.27 1406.07V1220.77C1066.27 1140.53 1101.43 1100.41 1171.74 1100.41C1200.71 1100.41 1222.93 1106.27 1238.39 1117.98C1253.85 1129.54 1264.52 1146.47 1270.38 1168.77C1276.23 1191.06 1279.16 1218.24 1279.16 1250.31H1195.18V1212.22C1195.18 1202.95 1193.88 1195.21 1191.27 1189.03C1188.83 1182.68 1183.62 1179.51 1175.65 1179.51C1165.72 1179.51 1159.13 1182.84 1155.87 1189.52C1152.78 1196.19 1151.23 1203.51 1151.23 1211.49V1419.74C1151.23 1431.3 1152.7 1440.74 1155.63 1448.06C1158.72 1455.22 1164.66 1458.8 1173.45 1458.8C1182.57 1458.8 1188.59 1455.22 1191.52 1448.06C1194.61 1440.74 1196.16 1431.14 1196.16 1419.25V1357.97H1173.21V1283.76H1278.19V1534H1243.76L1229.12 1497.87C1214.14 1524.56 1190.54 1537.91 1158.31 1537.91ZM1399.91 1537.91C1365.56 1537.91 1339.28 1527.57 1321.05 1506.9C1302.98 1486.07 1293.95 1456.04 1293.95 1416.81V1212.71C1293.95 1175.93 1302.9 1148.01 1320.8 1128.97C1338.87 1109.93 1365.24 1100.41 1399.91 1100.41C1434.57 1100.41 1460.86 1109.93 1478.76 1128.97C1496.83 1148.01 1505.86 1175.93 1505.86 1212.71V1416.81C1505.86 1456.04 1496.75 1486.07 1478.52 1506.9C1460.45 1527.57 1434.25 1537.91 1399.91 1537.91ZM1400.64 1458.8C1413.66 1458.8 1420.17 1446.19 1420.17 1420.96V1211.25C1420.17 1190.09 1413.82 1179.51 1401.13 1179.51C1386.8 1179.51 1379.64 1190.33 1379.64 1211.98V1421.45C1379.64 1434.8 1381.27 1444.4 1384.53 1450.26C1387.78 1455.96 1393.15 1458.8 1400.64 1458.8Z" fill="#E3E6F8"/>
<path d="M323.227 2087.91C292.139 2087.91 267.074 2078.22 248.031 2058.85C229.151 2039.49 219.711 2012.39 219.711 1977.55V1779.31C219.711 1737.65 227.93 1705.74 244.369 1683.61C260.971 1661.47 287.908 1650.41 325.18 1650.41C345.525 1650.41 363.591 1654.15 379.379 1661.64C395.329 1669.12 407.862 1680.35 416.977 1695.33C426.091 1710.14 430.648 1728.86 430.648 1751.48V1825.7H345.199V1762.22C345.199 1749.36 343.572 1740.74 340.316 1736.34C337.061 1731.79 332.016 1729.51 325.18 1729.51C317.204 1729.51 311.833 1732.44 309.066 1738.3C306.299 1743.99 304.916 1751.64 304.916 1761.25V1976.33C304.916 1988.22 306.625 1996.6 310.043 2001.48C313.624 2006.36 318.669 2008.8 325.18 2008.8C332.504 2008.8 337.631 2005.79 340.561 1999.77C343.653 1993.75 345.199 1985.94 345.199 1976.33V1898.94H431.625V1980.24C431.625 2018 422.104 2045.43 403.061 2062.52C384.018 2079.44 357.406 2087.91 323.227 2087.91ZM433.715 2084L475.219 1654.31H620.971L661.742 2084H580.443L574.34 2014.66H522.582L517.211 2084H433.715ZM528.686 1946.06H567.748L548.949 1727.55H545.043L528.686 1946.06ZM669.203 2084V1654.31H752.211V2084H669.203ZM771.391 2084V1654.31H884.916C908.679 1654.31 927.478 1659.6 941.312 1670.18C955.31 1680.76 965.32 1695.82 971.342 1715.35C977.364 1734.88 980.375 1758.15 980.375 1785.17C980.375 1811.21 977.852 1833.92 972.807 1853.29C967.761 1872.49 958.728 1887.39 945.707 1897.96C932.849 1908.54 914.538 1913.83 890.775 1913.83H855.863V2084H771.391ZM855.863 1836.69H860.746C876.697 1836.69 886.462 1832.21 890.043 1823.26C893.624 1814.31 895.414 1801.12 895.414 1783.71C895.414 1767.43 893.624 1754.9 890.043 1746.11C886.625 1737.16 878.406 1732.68 865.385 1732.68H855.863V1836.69ZM988.812 2084V1654.31H1071.82V2084H988.812ZM1091 2084V1654.31H1222.84C1244.81 1654.31 1261.41 1659.36 1272.64 1669.45C1283.87 1679.38 1291.36 1693.38 1295.1 1711.44C1299.01 1729.35 1300.96 1750.42 1300.96 1774.67C1300.96 1798.11 1297.95 1816.83 1291.93 1830.83C1286.07 1844.82 1274.92 1854.51 1258.48 1859.88C1271.99 1862.65 1281.43 1869.4 1286.8 1880.14C1292.33 1890.72 1295.1 1904.48 1295.1 1921.4V2084H1210.38V1915.79C1210.38 1903.25 1207.78 1895.52 1202.57 1892.59C1197.53 1889.5 1189.31 1887.96 1177.91 1887.96V2084H1091ZM1178.4 1813.49H1199.15C1211.04 1813.49 1216.98 1800.55 1216.98 1774.67C1216.98 1757.91 1215.67 1746.92 1213.07 1741.71C1210.47 1736.51 1205.58 1733.9 1198.42 1733.9H1178.4V1813.49ZM1302.56 2084L1344.07 1654.31H1489.82L1530.59 2084H1449.29L1443.19 2014.66H1391.43L1386.06 2084H1302.56ZM1397.53 1946.06H1436.6L1417.8 1727.55H1413.89L1397.53 1946.06Z" fill="#E3E6F8"/>
<path d="M440.597 2589.33V2207.91H559.18C590.15 2207.91 613.377 2216.55 628.862 2233.83C644.51 2250.94 652.334 2276.05 652.334 2309.13V2461.7C652.334 2502.45 645.244 2533.91 631.063 2556.08C616.882 2578.25 591.943 2589.33 556.246 2589.33H440.597ZM527.15 2513.29H542.065C557.876 2513.29 565.781 2505.63 565.781 2490.31V2317.2C565.781 2302.86 563.825 2293.65 559.913 2289.57C556.164 2285.34 548.422 2283.22 536.686 2283.22H527.15V2513.29Z" fill="#D4F371"/>
<path d="M775.21 2553.18C740.002 2553.18 713.514 2542.59 695.747 2521.4C677.98 2500.05 669.097 2470.22 669.097 2431.91V2316.47C669.097 2279.47 678.143 2251.51 696.236 2232.61C714.492 2213.54 740.817 2204 775.21 2204C809.766 2204 836.09 2213.54 854.183 2232.61C872.276 2251.51 881.323 2279.47 881.323 2316.47V2431.91C881.323 2470.22 872.439 2500.05 854.672 2521.4C836.905 2542.59 810.418 2553.18 775.21 2553.18ZM775.943 2476.41C784.093 2476.41 789.391 2472.74 791.836 2465.41C794.281 2457.91 795.503 2448.95 795.503 2438.51V2312.56C795.503 2304.9 794.444 2297.72 792.325 2291.04C790.206 2284.2 784.908 2280.77 776.432 2280.77C768.119 2280.77 762.414 2283.95 759.317 2290.31C756.383 2296.5 754.916 2304.16 754.916 2313.29V2439C754.916 2450.25 756.22 2459.3 758.828 2466.14C761.436 2472.99 767.141 2476.41 775.943 2476.41Z" fill="#D4F371"/>
<path d="M1001.26 2553.18C970.132 2553.18 945.03 2543.49 925.959 2524.09C907.051 2504.69 897.597 2477.55 897.597 2442.67V2333.1C897.597 2291.37 905.828 2259.42 922.291 2237.25C938.917 2215.08 965.894 2204 1003.22 2204C1023.6 2204 1041.69 2207.75 1057.5 2215.25C1073.47 2222.74 1086.02 2233.99 1095.15 2248.99C1104.28 2263.82 1108.84 2282.57 1108.84 2305.22V2373.68H1023.27V2313.54C1023.27 2300.66 1021.64 2292.02 1018.38 2287.62C1015.12 2283.05 1010.07 2280.77 1003.22 2280.77C995.234 2280.77 989.855 2283.71 987.084 2289.57C984.313 2295.28 982.927 2302.94 982.927 2312.56V2443.89C982.927 2455.79 984.639 2464.19 988.062 2469.08C991.648 2473.97 996.701 2476.41 1003.22 2476.41C1010.56 2476.41 1015.69 2473.4 1018.62 2467.37C1021.72 2461.33 1023.27 2453.51 1023.27 2443.89V2428.45H1109.82V2445.36C1109.82 2483.18 1100.29 2510.64 1081.22 2527.76C1062.15 2544.71 1035.49 2553.18 1001.26 2553.18Z" fill="#D4F371"/>
<path d="M1123.65 2589.33V2207.91H1295.78V2291.04H1211.18V2354.12H1292.36V2435.05H1211.18V2505.47H1301.4V2589.33H1123.65Z" fill="#D4F371"/>
<path d="M670.561 2565.96H1111.21V2592.67H670.561V2565.96Z" fill="#D4F371"/>
<path d="M332.887 3097.43V2716.58H418.824V3024.19H507.203V3097.43H332.887Z" fill="#D4F371"/>
<path d="M512.711 3097.43V2716.58H595.718V3097.43H512.711Z" fill="#D4F371"/>
<path d="M614.898 3097.43V2716.58H745.756L781.889 2943.63L817.777 2716.58H949.857V3097.43H871.244V2834.98L821.928 3097.43H744.78L692.534 2834.5V3097.43H614.898Z" fill="#D4F371"/>
<path d="M961.224 3097.43L1002.73 2776.58H1148.48L1189.25 3097.43H1107.95L1102.34 3028.1H1049.6L1044.72 3097.43H961.224ZM1072.55 2844.93L1056.68 2959.49H1094.28L1076.46 2844.93H1072.55Z" fill="#D4F371"/>
<path d="M1303.16 3101.34C1268 3101.34 1241.55 3090.76 1223.81 3069.6C1206.07 3048.28 1197.2 3018.5 1197.2 2980.25V2824.97C1197.2 2788.03 1206.23 2760.11 1224.3 2741.23C1242.53 2722.19 1268.81 2712.67 1303.16 2712.67C1337.66 2712.67 1363.95 2722.19 1382.01 2741.23C1400.08 2760.11 1409.11 2788.03 1409.11 2824.97V2980.25C1409.11 3018.5 1400.24 3048.28 1382.5 3069.6C1364.76 3090.76 1338.31 3101.34 1303.16 3101.34ZM1303.89 3024.68C1312.03 3024.68 1317.32 3021.02 1319.76 3013.69C1322.2 3006.21 1323.42 2997.26 1323.42 2986.84V2821.07C1323.42 2813.42 1322.36 2806.26 1320.25 2799.58C1318.13 2792.75 1312.84 2789.33 1304.38 2789.33C1296.08 2789.33 1290.38 2792.5 1287.29 2798.85C1284.36 2805.04 1282.89 2812.69 1282.89 2821.8V2987.33C1282.89 2998.56 1284.19 3007.59 1286.8 3014.43C1289.4 3021.26 1295.1 3024.68 1303.89 3024.68Z" fill="#D4F371"/>
<path d="M1002.74 2717.44H1149.4V2754.1H1002.74V2717.44Z" fill="#D4F371"/>
</svg>
